<?xml version="1.0" standalone="no"?>
<!DOCTYPE svg PUBLIC "-//W3C//DTD SVG 20010904//EN"
 "http://www.w3.org/TR/2001/REC-SVG-20010904/DTD/svg10.dtd">
<svg version="1.0" xmlns="http://www.w3.org/2000/svg"
 width="507.000000pt" height="152.000000pt" viewBox="0 0 507.000000 152.000000"
 preserveAspectRatio="xMidYMid meet">

<g transform="translate(0.000000,152.000000) scale(0.100000,-0.100000)"
fill="#000000" stroke="none">
<path d="M270 955 l0 -437 51 44 c29 23 66 55 83 69 l31 27 80 -71 80 -71 3
283 2 283 148 -4 c164 -5 206 -17 276 -78 76 -68 117 -202 96 -318 -22 -125
-70 -195 -161 -241 l-62 -31 -404 0 -403 0 0 -156 0 -155 423 4 c468 4 478 5
607 73 138 72 233 189 286 350 26 80 29 103 29 219 0 108 -4 143 -23 205 -52
167 -159 299 -294 364 -130 63 -167 68 -525 73 l-323 5 0 -437z m699 361 c266
-67 433 -310 418 -606 -5 -104 -37 -218 -84 -299 -38 -65 -128 -150 -198 -188
-120 -63 -140 -66 -572 -70 l-393 -5 0 105 0 104 378 -1 c371 -1 378 -1 433
22 118 47 196 152 220 296 13 79 1 181 -31 253 -29 65 -101 136 -173 169 -59
27 -70 28 -239 32 l-178 4 -2 -251 -3 -251 -52 45 c-28 25 -55 45 -59 45 -4 0
-31 -21 -60 -46 l-54 -46 0 357 0 358 293 -6 c221 -4 308 -9 356 -21z"/>
<path d="M350 999 l0 -301 40 36 41 37 37 -31 37 -30 3 226 2 225 208 -3 208
-3 65 -32 c130 -64 208 -187 217 -342 11 -200 -68 -350 -226 -424 l-67 -32
-372 -3 -373 -3 0 -65 0 -64 363 0 c397 0 438 5 545 59 193 98 296 315 271
568 -25 244 -177 420 -406 468 -49 11 -140 15 -330 15 l-263 0 0 -301z"/>
<path d="M2340 1030 c-103 -18 -170 -99 -170 -205 0 -93 41 -158 125 -196 164
-76 343 89 283 262 -34 101 -131 157 -238 139z m98 -110 c36 -22 52 -54 52
-107 0 -50 -54 -103 -105 -103 -127 0 -167 165 -52 215 44 19 67 18 105 -5z"/>
<path d="M1730 824 l0 -206 129 4 c125 3 131 4 173 33 62 43 90 103 86 181 -5
80 -40 133 -111 169 -45 22 -63 25 -164 25 l-113 0 0 -206z m230 101 c67 -35
82 -120 31 -177 -25 -29 -35 -32 -95 -36 l-66 -4 0 116 0 116 50 0 c28 0 64
-7 80 -15z"/>
<path d="M2600 985 l0 -45 55 0 55 0 0 -160 0 -160 45 0 45 0 0 160 0 160 55
0 55 0 0 45 0 45 -155 0 -155 0 0 -45z"/>
<path d="M3009 1003 c-24 -63 -139 -377 -139 -380 0 -2 23 -3 51 -3 48 0 51 2
65 35 l14 35 74 0 73 0 9 -32 c9 -31 12 -33 62 -36 29 -2 52 0 52 4 0 3 -32
96 -72 205 l-72 199 -53 0 c-49 0 -54 -2 -64 -27z m95 -201 c7 -20 4 -22 -28
-22 -41 0 -44 9 -20 66 l16 38 13 -30 c7 -17 16 -40 19 -52z"/>
<path d="M3310 825 l0 -205 50 0 50 0 0 65 0 65 38 0 c92 1 156 62 154 149 -1
92 -61 131 -199 131 l-93 0 0 -205z m181 105 c45 -25 7 -90 -53 -90 -27 0 -28
2 -28 50 0 49 1 50 31 50 17 0 39 -5 50 -10z"/>
<path d="M3650 825 l0 -205 130 0 130 0 0 45 0 45 -80 0 -80 0 0 35 0 35 70 0
70 0 0 45 0 45 -70 0 -70 0 0 35 0 35 80 0 80 0 0 45 0 45 -130 0 -130 0 0
-205z"/>
<path d="M3970 825 l0 -205 113 0 c102 0 118 3 165 26 116 58 146 212 59 311
-51 59 -95 73 -224 73 l-113 0 0 -205z m224 100 c59 -28 81 -96 51 -155 -20
-39 -63 -60 -125 -60 l-50 0 0 115 0 115 46 0 c25 0 60 -7 78 -15z"/>
<path d="M4420 825 l0 -205 50 0 50 0 0 205 0 205 -50 0 -50 0 0 -205z"/>
<path d="M4680 973 c-19 -50 -53 -143 -116 -315 l-13 -38 52 0 c51 0 53 1 66
35 l12 35 74 0 73 0 12 -35 c11 -34 13 -35 66 -35 l54 0 -19 48 c-10 26 -44
118 -76 205 l-58 157 -53 0 -53 0 -21 -57z m109 -180 c1 -8 -12 -13 -34 -13
-40 0 -41 4 -18 62 l17 42 17 -40 c10 -21 18 -45 18 -51z"/>
</g>
</svg>
